<svg xmlns="http://www.w3.org/2000/svg">
    <symbol id="stars" viewBox="0 0 512.736 512.736">
        <title>Fogata</title>
     
<path style="fill:#FFD83B;" d="M238,512.736c0-76.8-128.544-205.344-205.344-205.344c76.8,0,205.344-128.544,205.344-205.344
	c0,76.8,128.544,205.344,205.344,205.344C366.544,307.392,238,435.936,238,512.736z"/>
<path style="fill:#F3C432;" d="M238,388.272c0-30.24-50.64-80.88-80.88-80.88c30.24,0,80.88-50.64,80.88-80.88
	c0,30.24,50.64,80.88,80.88,80.88C288.624,307.392,238,358.016,238,388.272z"/><g>
	<path style="fill:#FFD83B;" d="M381.168,226.512c0-36.992-61.92-98.912-98.912-98.912c36.992,0,98.912-61.92,98.912-98.912
		c0,36.992,61.92,98.912,98.912,98.912C443.088,127.6,381.168,189.52,381.168,226.512z"/>
	<path style="fill:#FFD83B;" d="M92.976,505.36c0-19.056-31.888-50.944-50.944-50.944c19.056,0,50.944-31.888,50.944-50.944
		c0,19.056,31.888,50.944,50.944,50.944C124.864,454.432,92.976,486.32,92.976,505.36z"/>
	<path style="fill:#FFD83B;" d="M158.688,141.408c0-26.448-44.256-70.704-70.704-70.704c26.448,0,70.704-44.256,70.704-70.704
		c0,26.448,44.256,70.704,70.704,70.704C202.944,70.704,158.688,114.96,158.688,141.408z"/>
</g><g>
</g><g>
</g><g>
</g><g>
</g><g></g>
<g></g><g>
</g><g>
</g><g>
</g><g>
</g><g></g><g></g><g></g><g></g><g>
</g> </symbol>
    <symbol id="hiking" viewBox="0 0 60 59">
        <title>Fogata</title>
     <g  fill="none"><g id="Icons" transform="translate(1)"><path id="Shape" d="m27 49v1c0 .5522847-.4477153 1-1 1h-8c-.5522847 0-1-.4477153-1-1v-4h7c1.6568542 0 3 1.3431458 3 3z" fill="#283593"/><path id="Shape" d="m14 56v1c0 .5522847-.4477153 1-1 1h-8c-.55228475 0-1-.4477153-1-1v-4h7c1.6568542 0 3 1.3431458 3 3z" fill="#283593"/><path id="Shape" d="m24 49v1c0 .5522847-.4477153 1-1 1h-5c-.5522847 0-1-.4477153-1-1v-4h4c1.6568542 0 3 1.3431458 3 3z" fill="#3f51b5"/><path id="Shape" d="m11 56v1c0 .5522847-.4477153 1-1 1h-5c-.55228475 0-1-.4477153-1-1v-4h4c1.65685425 0 3 1.3431458 3 3z" fill="#3f51b5"/><path id="Shape" d="m59 56v1c0 .5522847-.4477153 1-1 1h-44v-1c.537 0 .831.021 1.15-.35 5.55-6.45 4.686-5.5 4.91-5.65h18.67l7.044 4.82c.364.257-.56.18 13.226.18z" fill="#549414"/><path id="Shape" d="m56 56v1c0 .5522847-.4477153 1-1 1h-41v-1c.537 0 .831.021 1.15-.35 5.55-6.45 4.686-5.5 4.91-5.65h15.67l5.83 4.82c.366.258-.655.18 14.44.18z" fill="#60a917"/><path id="Shape" d="m15.37 10.56c-.3629093-.3631077-.8566521-.56492952-1.37-.56h-6.58c-1.91115137-2.31495629-1.61305398-5.7347439.6698119-7.68411444 2.2828659-1.94937055 5.7071364-1.70816407 7.6941874.54198049 1.987051 2.25014457 1.8028021 5.67795169-.4139993 7.70213395z" fill="#dfc49c"/><path id="Shape" d="m12.89 10h-5.47c-1.17577332-1.43533576-1.55019974-3.36604773-.99619697-5.13684205.55400278-1.77079433 1.9620327-3.143855 3.74619697-3.65315795 1.7882107.5047941 3.199093 1.88088475 3.7483696 3.65593682.5492767 1.77505207.1621994 3.70750788-1.0283696 5.13406318z" fill="#ffe0b2"/><path id="Shape" d="m24.35 17.81-3.15 3.93-2.2-2.2v10.46h-4.27c.386-.658.27 0 .27-14 .5522847 0 1-.4477153 1-1v-3c1.3495993-.1867045 2.7116721.2428441 3.71 1.17z" fill="#f44335"/><path id="Shape" d="m24 36v10h-7l-1-8c0-.5522847-.4477153-1-1-1-2.209 0-2.2-.043-2.5.14-.3099688.1751092-.5011791.5039908-.5.86l-1 15h-7v-22h9c.7137984-.0007321 1.373101-.3818319 1.73-1h3.27c3.3137085 0 6 2.6862915 6 6z" fill="#37474f"/><path id="Shape" d="m21 36v10h-4l-1-8c0-.5522847-.4477153-1-1-1-2.209 0-2.2-.043-2.5.14-.306-.184-.325-.14-2.5-.14-.55228475 0-1 .4477153-1 1l-1 15h-4v-22h6c.7137984-.0007321 1.373101-.3818319 1.73-1h3.27c3.3137085 0 6 2.6862915 6 6z" fill="#607d8b"/><path id="Shape" d="m15 16c0 13.933.116 13.342-.27 14-.356899.6181681-1.0162016.9992679-1.73 1h-10c-1.10320187-.0032948-1.9967052-.8967981-2-2v-13z" fill="#d84315"/><path id="Shape" d="m12 16c0 13.933.116 13.342-.27 14-.356899.6181681-1.0162016.9992679-1.73 1h-7c-1.10320187-.0032948-1.9967052-.8967981-2-2v-13z" fill="#ff5722"/><path id="Shape" d="m35 23.46v25.54c0 1.1045695-.8954305 2-2 2s-2-.8954305-2-2v-25h2.36c.5887505-.0096899 1.1606673-.198004 1.64-.54z" fill="#7f6e5d"/><path id="Shape" d="m53 11c-.0052852 2.563808-1.9489176 4.7081776-4.4998738 4.9646182s-4.8825198-1.4581554-5.3980073-3.9696115c-.5154876-2.51145613.9521607-5.00585722 3.3978811-5.7750067 1.5202835-.47266565 3.1747074-.19492843 4.4573017.74827171 1.2825944.94320015 2.040786 2.43966324 2.0426983 4.03172829z" fill="#fdd834"/><ellipse id="Oval" cx="46.5" cy="11" fill="#ffeb3a" rx="3.5" ry="4.78"/><path id="Shape" d="m56.28 46h-21.28v-1.75l5.86-10.25h10.28l6 10.5c.178104.3084703.1786812.6883921.0015155.9974022-.1771658.3090101-.5053269.5004553-.8615155.5025978z" fill="#37474f"/><path id="Shape" d="m53.28 46h-18.28v-1.75l5.86-10.25h7.28l6 10.5c.178104.3084703.1786812.6883921.0015155.9974022-.1771658.3090101-.5053269.5004553-.8615155.5025978z" fill="#607d8b"/><path id="Shape" d="m15 16v4c0 1.6568542-1.3431458 3-3 3h-8c-1.65685425 0-3-1.3431458-3-3v-4z" fill="#f57c00"/><path id="Shape" d="m12 16v4c0 1.6568542-1.3431458 3-3 3h-5c-1.65685425 0-3-1.3431458-3-3v-4z" fill="#ff9801"/><path id="Shape" d="m16 12v3c0 .5522847-.4477153 1-1 1h-14c-.55228475 0-1-.4477153-1-1v-3c.0032948-1.1032019.89679813-1.9967052 2-2h12c1.1032019.0032948 1.9967052.8967981 2 2z" fill="#d84315"/><path id="Shape" d="m13 12v3c0 .5522847-.4477153 1-1 1h-11c-.55228475 0-1-.4477153-1-1v-3c.0032948-1.1032019.89679813-1.9967052 2-2h9c1.1032019.0032948 1.9967052.8967981 2 2z" fill="#ff5722"/><path id="Shape" d="m31 19v5h-5.88c-1.915 0-2.78-1.12-3.92-2.26l3.15-3.93c.857.857 1.059 1.19 1.6 1.19z" fill="#ffe0b2"/><path id="Shape" d="m35.99 21.76c-.1821971 1.305341-1.3122995 2.2678617-2.63 2.24h-2.36v-5.0000025l2.5.0000025c.7089098-.0010086 1.3849166.2989977 1.8597846.8253574s.7039428 1.2295763.6302154 1.9346426z" fill="#dfc49c"/><path id="Shape" d="m51.14 34h-10.28c4.377-7.672 3.4-5.975 4.27-7.48.1775612-.3133105.509873-.5069483.87-.5069483s.6924388.1936378.87.5069483z" fill="#cfd8dc"/><path id="Shape" d="m48.14 34h-7.28l3.64-6.38z" fill="#f5f5f5"/></g><g id="Outline" fill="#000"><path id="Shape" d="m10 18h-2c-.55228475 0-1 .4477153-1 1s.44771525 1 1 1h2c.5522847 0 1-.4477153 1-1s-.4477153-1-1-1z"/><path id="Shape" d="m43 11c0 3.3137085 2.6862915 6 6 6s6-2.6862915 6-6-2.6862915-6-6-6c-3.3123376.00330738-5.9966926 2.68766243-6 6zm6-4c2.209139 0 4 1.790861 4 4s-1.790861 4-4 4-4-1.790861-4-4 1.790861-4 4-4z"/><path id="Shape" d="m50 1.909v-.909c0-.55228475-.4477153-1-1-1s-1 .44771525-1 1v.909c0 .55228475.4477153 1 1 1s1-.44771525 1-1z"/><path id="Shape" d="m48 20.091v.909c0 .5522847.4477153 1 1 1s1-.4477153 1-1v-.909c0-.5522847-.4477153-1-1-1s-1 .4477153-1 1z"/><path id="Shape" d="m59 10h-.909c-.5522847 0-1 .4477153-1 1s.4477153 1 1 1h.909c.5522847 0 1-.4477153 1-1s-.4477153-1-1-1z"/><path id="Shape" d="m39.909 12c.5522847 0 1-.4477153 1-1s-.4477153-1-1-1h-.909c-.5522847 0-1 .4477153-1 1s.4477153 1 1 1z"/><path id="Shape" d="m56.778 3.222c-.3904999-.39038194-1.0235001-.39038194-1.414 0l-.642.642c-.2859079.28599425-.3714219.71603662-.216678 1.08965456s.5192821.61725909.923678.61734544c.5 0 .67-.256 1.349-.935.3903819-.39049985.3903819-1.02350015 0-1.414z"/><path id="Shape" d="m41.222 18.778c.3904999.3903819 1.0235001.3903819 1.414 0l.642-.642c.3789722-.3923789.3735524-1.0160848-.0121814-1.4018186s-1.0094397-.3911536-1.4018186-.0121814l-.642.642c-.3903819.3904999-.3903819 1.0235001 0 1.414z"/><path id="Shape" d="m56.136 16.722c-.3923789-.3789722-1.0160848-.3735524-1.4018186.0121814s-.3911536 1.0094397-.0121814 1.4018186c.576.576.816.935 1.349.935.4043959-.0000863.7689341-.2437275.923678-.6173454.1547439-.373618.0692299-.8036603-.216678-1.0896546z"/><path id="Shape" d="m42.636 3.222c-.3923789-.37897221-1.0160848-.37355237-1.4018186.01218142-.3857338.3857338-.3911536 1.00943969-.0121814 1.40181858.576.576.816.935 1.349.935.4043959-.00008635.7689341-.2437275.923678-.61734544s.0692299-.80366031-.216678-1.08965456z"/><path id="Shape" d="m59 55c-12.341 0-11.566.079-11.938-.184l-5.962-4.262c-.5079792-.361713-1.1163999-.5554286-1.74-.554h-2.547c.246-.689.184-.563.184-5.479l5.441-9.521h9.126l6.568 11.5c.1725461.3192653.5045188.5199915.8673996.5244702s.6997064-.187993.8800796-.5029026c.1803732-.3149095.1759798-.7028239-.0114792-1.0135676l-11.134-19.491c-.3572918-.6220575-1.0203757-1.0051143-1.73774-1.0038746-.7173643.0012396-1.3791203.3865859-1.73426 1.0098746l-8.262 14.466v-16.6c.979879-.9994329 1.262019-2.4903505.7150813-3.7787169s-1.8154692-2.1209925-3.2150813-2.1102831c-15.213 0-1.612 0-7.54 0l-5.54-5.54c-.9574834-.9494479-2.2556713-1.4753509-3.604-1.46-.0439314-.1214086-.0953638-.2399704-.154-.355 2.0390077-2.44774757 1.9999272-6.01353524-.0922382-8.41600577s-5.6187519-2.93120138-8.32348288-1.24791554c-2.70473096 1.68328583-3.78780387 5.0808323-2.55627892 8.01892131h-3.69c-1.65685425 0-3 1.3431458-3 3v3c.002145.7113268.38324874 1.3675874 1 1.722v12.278c0 1.6568542 1.34314575 3 3 3v25h-3c-.55228475 0-1 .4477153-1 1s.44771525 1 1 1h13.08c.8762367-.0005266 1.7084462-.3841175 2.278-1.05l4.8-5.6c.1923984-.2200841.4696857-.3474471.762-.35 18.935 0 17.632-.089 18.018.184l5.962 4.262c.5079792.361713 1.1163999.5554286 1.74.554h11.36c.5522847 0 1-.4477153 1-1s-.4477153-1-1-1zm-12-27.984 3.421 5.984h-6.839zm-13.716 22.677c-.1846824-.1829586-.287175-.4330551-.284-.693v-24c.6670452.0428986 1.3366436.0231455 2-.059v24.059c-.0020645.4058386-.2492086.7701813-.625524.9221548-.3763154.1519736-.8071617.0614346-1.090476-.2291548zm2.329-29.2c.4033943.4635732.4870365 1.1248087.2117794 1.6742271-.2752571.5494185-.8549561.8783218-1.4677794.8327729h-1.357v-3c1.617 0 2.068-.106 2.613.494zm-4.613-.493v3h-4.88c-1.0159585-.0374589-1.9621071-.5266691-2.58-1.334l1.892-2.36.111.111c.3741245.3717377.8795962.5811833 1.407.583zm-6.991-2.117-1.891 2.361-1.41-1.41c-.2857714-.2864948-.7160359-.3725276-1.0900013-.2179494-.3739655.1545782-.6179127.5192958-.6179987.9239494v9.46h-2v-12.278c.6167513-.3544126.997855-1.0106732 1-1.722v-1.988c.7511478.0291061 1.4643744.3375767 2 .865zm-19.009 4.117c-1.1045695 0-2-.8954305-2-2v-3h12v3c0 1.1045695-.8954305 2-2 2zm7.67-20c1.7165132.00105139 3.2820811.98108402 4.0330063 2.5246287.7509251 1.54354468.5556637 3.3802101-.5030063 4.7313713-.772-.341-.613-.256-7.258-.256-.92629114-1.37762752-1.01747294-3.15375857-.23712709-4.61900025.78034586-1.46524169 2.30504489-2.38080076 3.96512709-2.38099975zm-10.67 10c0-.5522847.44771525-1 1-1h12c.5522847 0 1 .4477153 1 1v3h-14zm1 17v-5.556c.60534654.3599241 1.29574677.5518554 2 .556v2c0 .5522847.44771525 1 1 1s1-.4477153 1-1v-2h4v2c0 .5522847.4477153 1 1 1s1-.4477153 1-1v-2c.7042532-.0041446 1.3946535-.1960759 2-.556 0 5.993.056 5.73-.133 6.051-.1775308.3116282-.5083514.5043207-.867.505h-10c-.55228475 0-1-.4477153-1-1zm12.383 2.65c.3125565-.17643.5992625-.3951611.852-.65h2.765c2.7600532.0033061 4.9966939 2.2399468 5 5v9h-5.117l-.883-7.072c-.0387737-1.076354-.9229481-1.9286981-2-1.928h-2c-1.0822804-.0079999-1.9716911.8520603-2 1.934l-.936 14.066h-5.064v-20c8.785 0 8.525.1 9.383-.35zm-9.383 25.35v-3h6c1.1045695 0 2 .8954305 2 2v1zm9.936-1.629c-.248098-1.5414092-1.372839-2.7962887-2.878-3.211l.942-14.16h2c.0001736.0414565.0028451.0828649.008.124 1.162 9.527.992 6.917.992 11.876.0050254 1.0391922.8050839 1.9013954 1.841 1.984zm3.064-5.371v-3h6c1.1045695 0 2 .8954305 2 2v1zm7-4.858v-9.142c-.0087133-3.0873704-2.0407483-5.8037948-5-6.684v-7.362l1.583 1.583c.940439.9342659 2.2113797 1.4599618 3.537 1.463h4.88c0 26.26-.077 24.267.181 25h-2.181v-1c-.0068148-1.8184116-1.2393149-3.4034067-3-3.858z"/></g></g></symbol>
    <symbol id="camping" viewBox="0 0 512.003 512.003">
        <title>Fogata</title>
      <g><g clip-rule="evenodd" fill-rule="evenodd"><ellipse cx="41.745" cy="453.079" fill="#ddb9a3" rx="30" ry="50" transform="matrix(.966 -.259 .259 .966 -115.842 26.242)"/><path d="m28.804 404.783c16.004-4.288 34.771 13.859 41.918 40.532s-.032 51.773-16.037 56.061l201.316-53.943 186.021-49.844c1.917-.514 3.707-1.326 5.361-2.403 12.158-7.919 16.967-30.179 10.676-53.658-7.147-26.673-25.914-44.82-41.918-40.532l-23.752 6.364-82.163 22.016-54.224 14.529-191.378 51.28z" fill="#c68a65"/><path d="m447.383 395.186c-.001 0-.002.001 0 0zm-5.361 2.403-186.021 49.844 201.316 53.943c-16.004-4.289-23.184-29.388-16.037-56.061s25.914-44.82 41.918-40.532l-35.816-9.597c-1.653 1.077-3.443 1.889-5.36 2.403z" fill="#d1a184"/><ellipse cx="470.258" cy="453.079" fill="#ddb9a3" rx="50" ry="30" transform="matrix(.259 -.966 .966 .259 -89.094 790.048)"/><path d="m64.624 395.185 191.377-51.279-66.264-17.755-64.132-17.184-29.743-7.97c-16.004-4.288-34.772 13.859-41.919 40.532-6.291 23.48-1.479 45.738 10.681 53.656z" fill="#d1a184"/><path d="m189.737 326.15 66.264 17.755 54.224-14.529c17.404-70.967-14.271-118.448-37.775-140.595 7 58.5-42 94-42 94-17.5-13-19.5-40-19.5-40-22.883 22.883-31.105 47.861-21.213 83.369z" fill="#ff9346"/><path d="m189.737 326.15c-9.892-35.508-1.67-60.486 21.213-83.369 0 0 2 27 19.5 40 0 0 49-35.5 42-94 23.504 22.148 55.179 69.628 37.775 140.595l82.163-22.016c39.655-106.202-25.55-195.859-25.55-195.859-8 44.5-45 62.5-45 62.5 30.5-136.5-71.5-164-71.5-164 45.486 82.769-33 75.491-33 165 0-36.62-11-64-44.5-86.5 24.723 99.843-115.116 106.555-47.232 220.465z" fill="#ffc144"/></g><g><path d="m509.514 421.668c-3.975-13.895-12.623-23.57-23.728-26.545l-20.891-5.598c1.37-2.705 2.534-5.647 3.442-8.823 3.52-12.306 3.3-27.138-.619-41.763-8.708-32.498-32.502-53.409-54.165-47.603l-6.03 1.616c13.909-50.506 6.157-95.967-3.548-126.47-11.694-36.755-28.346-59.895-29.049-60.862-2.356-3.241-6.422-4.762-10.322-3.867-3.905.896-6.899 4.035-7.607 7.978-3.362 18.702-12.411 32.089-21.009 41.003 7.06-59.412-12.229-95.86-31.052-116.635-23.39-25.817-50.838-33.441-51.994-33.753-3.869-1.042-7.991.325-10.468 3.478s-2.83 7.48-.899 10.993c22.371 40.708 12.48 54.12-3.905 76.34-6.754 9.158-14.333 19.437-20.226 32.759-7.911-17.224-20.729-31.424-39.031-43.716-3.431-2.304-7.927-2.261-11.313.111s-4.963 6.582-3.97 10.594c9.876 39.881-9.72 62.993-30.466 87.462-23.772 28.039-50.379 59.44-26.288 115.094l-7.926-2.124c-21.664-5.807-45.458 15.105-54.166 47.604-5.078 18.951-3.755 37.461 2.829 50.584l-20.897 5.599c-11.104 2.975-19.752 12.65-23.727 26.545-3.521 12.306-3.301 27.137.618 41.764 3.919 14.625 11.145 27.58 20.347 36.477 8.155 7.886 17.504 12.08 26.519 12.08 2.47 0 4.914-.315 7.302-.955.002-.001.004-.001.007-.002l198.72-53.247 198.728 53.249c2.432.652 4.889.967 7.35.967 19.465-.001 39.086-19.719 46.816-48.569 3.918-14.627 4.138-29.459.618-41.765zm-90.785-111.013c9.134-2.445 23.746 11.349 29.671 33.461.466 1.738.856 3.483 1.188 5.225l-18.461 4.947c-5.335 1.429-8.501 6.913-7.071 12.248 1.197 4.468 5.237 7.414 9.653 7.414.856 0 1.728-.111 2.594-.343l13.943-3.736c-.278 1.859-.655 3.645-1.138 5.332-1.995 6.976-5.521 11.614-9.674 12.727l-358.32 96.012c3.28-11.794 3.281-26.236-.733-41.215-3.86-14.408-10.933-27.186-19.94-36.068zm-270.809-119.354c17.852-21.056 37.636-44.394 37.895-79.037 15.072 16.087 21.522 35.587 21.522 62.737 0 5.523 4.478 10 10 10s10-4.478 10-10c0-36.137 13.436-54.355 26.429-71.974 14.246-19.319 27.846-37.764 16.709-72.252 6.498 4.268 13.621 9.974 20.275 17.461 25.951 29.2 33.127 70.78 21.328 123.584-.837 3.748.546 7.644 3.559 10.025 3.012 2.382 7.122 2.828 10.576 1.147 1.405-.684 29.068-14.495 43.528-47.023 4.903 9.45 10.632 22.143 15.387 37.245 13.619 43.26 13.473 85.572-.408 125.847l-61.557 16.494c.563-3.635 1.025-7.254 1.355-10.833.507-5.5-3.54-10.369-9.039-10.876-5.501-.519-10.369 3.539-10.877 9.039-.557 6.04-1.517 12.217-2.815 18.399l-45.784 12.268-58.015-15.545c-4.764-20.811-2.376-37.691 7.902-53.455 3.4 9.076 9.1 19.2 18.599 26.255 3.506 2.604 8.294 2.633 11.83.071 1.855-1.345 38.939-28.779 45.757-75.666 1.549 2.211 3.097 4.567 4.614 7.069 2.865 4.722 9.016 6.229 13.737 3.362 4.722-2.865 6.227-9.015 3.362-13.736-6.8-11.207-15.265-21.721-24.479-30.405-3.063-2.886-7.605-3.545-11.361-1.651-3.757 1.895-5.926 5.939-5.427 10.117 2.576 21.526-2.892 42.204-16.251 61.461-5.442 7.844-11.178 13.884-15.383 17.839-8.561-11.038-9.95-27.062-9.964-27.228-.289-3.9-2.824-7.273-6.49-8.635-3.664-1.362-7.789-.461-10.554 2.303-22.476 22.476-31.313 47.104-27.247 76.576l-44.44-11.908c-30.829-54.155-10.232-78.456 15.727-109.075zm-84.609 153.963 19.065 5.108c.867.232 1.737.343 2.594.343 4.415 0 8.456-2.947 9.653-7.414 1.43-5.335-1.736-10.818-7.071-12.248l-16.603-4.449c6.899-11.435 15.95-17.655 22.325-15.95l124.091 33.25-150.154 40.235c-5.53-6.839-8.225-21.66-3.9-38.875zm-40.885 112.992c-2.95-11.014-3.209-22.344-.708-31.087 1.995-6.976 5.521-11.614 9.674-12.727.696-.187 1.427-.278 2.185-.278 3.765 0 8.216 2.266 12.557 6.463 6.537 6.321 11.979 16.263 14.93 27.276 5.926 22.113.154 41.37-8.966 43.813-4.145 1.113-9.524-1.142-14.74-6.185-6.538-6.321-11.981-16.263-14.932-27.275zm312.923-21.732c.155.049.305.107.463.15l30.83 8.261c.866.232 1.737.343 2.594.343 4.415 0 8.456-2.947 9.653-7.414 1.263-4.714-1.065-9.539-5.304-11.585l71.024-19.031c1.358-.364 2.679-.831 3.96-1.391l2.991.802c-9.006 8.883-16.08 21.66-19.939 36.068-4.014 14.979-4.013 29.421-.733 41.215l-136.251-36.508zm154.227 21.731c-5.926 22.115-20.565 35.903-29.671 33.461-9.12-2.444-14.892-21.7-8.966-43.814 2.951-11.013 8.393-20.955 14.93-27.275 4.342-4.198 8.791-6.463 12.557-6.463.758 0 1.488.092 2.185.278 4.152 1.113 7.679 5.751 9.674 12.727 2.5 8.743 2.243 20.073-.709 31.086z"/><path d="m301.967 258.881c0 5.523 4.481 10 10.004 10s10-4.477 10-10-4.478-10-10-10h-.008c-5.522 0-9.996 4.477-9.996 10z"/><path d="m125.221 438.999c.856 0 1.728-.111 2.594-.343l22.027-5.902c5.335-1.429 8.501-6.913 7.071-12.247s-6.914-8.501-12.247-7.071l-22.027 5.902c-5.335 1.429-8.501 6.913-7.071 12.247 1.197 4.468 5.237 7.414 9.653 7.414z"/><path d="m277.208 393.95c.856 0 1.728-.111 2.594-.343l22.026-5.902c5.335-1.429 8.501-6.913 7.071-12.248-1.43-5.334-6.913-8.502-12.247-7.071l-22.026 5.902c-5.335 1.429-8.501 6.913-7.071 12.248 1.197 4.468 5.237 7.414 9.653 7.414z"/></g></g>
    </symbol>


</svg>